#N canvas 532 264 1206 834 10;
#X floatatom 103 209 5 0 0 0 - - -;
#X floatatom 102 295 5 0 0 0 - - -;
#X text 139 210 bpm;
#X text 143 295 ms;
#X obj 75 347 metro;
#X text 116 347 outputs bang every 'x' ms;
#X obj 286 1186 *~;
#X obj 286 1109 vline~;
#X text -91 1079 got to 1 (full volume) in 20 \, then go to zero (no
volume) in 20 ms after waiting 20 ms;
#X text 316 1185 multiply sine tone by amplitude envelope;
#X obj -35 393 f;
#X obj -125 516 delay;
#X obj -68 459 / 2;
#X text -168 454 half the time!;
#X obj 283 1268 dac~;
#X obj 467 55 loadbang;
#X obj 103 181 r Mtempo;
#X obj 407 47 vsl 15 128 0 1 0 0 Mvolume Mvolume empty 0 -9 0 10 -262144
-1 -1 1270 1;
#X obj 317 1217 r Mvolume;
#X obj 290 1239 *~;
#X obj 339 41 tgl 30 0 Monoff empty empty 17 7 0 10 -262144 -1 -1 0
1;
#X obj 621 201 v Mdivision;
#X msg 520 427 bang;
#X obj 319 1155 osc~;
#X obj 537 478 v currentTick;
#X obj 611 584 s currentTick;
#X obj 537 503 - 1;
#X obj 807 1076 v divisionFreq, f 15;
#X obj 499 627 v beatFreq;
#X obj 377 625 v beatVolume;
#X msg 287 1087 \$1 1 \, 0 1 5;
#X obj 781 1121 v divisionVolume;
#X floatatom 616 447 5 0 0 0 - - -;
#X obj 605 394 t b f;
#X obj 643 410 s currentTick;
#X obj 1086 375 sel 61 45, f 35;
#X obj 1084 399 expr Mvolume+0.1;
#X obj 880 387 moses 1;
#X obj 1190 419 moses 0;
#X obj 1084 445 s Mvolume;
#X obj 1229 441 s Mvolume;
#X obj 1190 397 expr Mvolume-0.1;
#X obj 1083 423 moses 1.00001;
#X obj 729 795 %, f 4;
#X text 909 291 [ ] - Beats;
#X text 1097 349 - = - Volume;
#X obj 539 558 moses 1;
#X obj 731 838 moses 1;
#X obj 556 1000 v subBeatFreq, f 15;
#X obj 526 952 t b b;
#X obj 783 1020 t b b;
#X obj 499 648 s \$0-freq;
#X obj 556 1021 s \$0-freq;
#X obj 807 1097 s \$0-freq;
#X obj 319 1133 r \$0-freq;
#X obj 525 1066 s \$0-beatVol;
#X obj 781 1142 s \$0-beatVol;
#X obj 378 650 s \$0-beatVol;
#X obj 288 1064 r \$0-beatVol;
#X obj 482 991 bng 15 250 50 0 empty empty empty 17 7 0 10 -262144
-1 -1;
#X obj 839 1055 bng 15 250 50 0 empty empty empty 17 7 0 10 -262144
-1 -1;
#X obj 517 600 t b b;
#X obj 485 586 bng 15 250 50 0 empty empty empty 17 7 0 10 -262144
-1 -1;
#X obj 728 704 expr Mbeats-$f1;
#X obj 772 767 r MsubBeatDivision;
#X obj 1305 480 sel 8220 8216, f 35;
#X text 1316 459 alt [ ] - subbeat;
#X obj 1336 542 expr MsubBeatDivision + $f1;
#X msg 1306 514 -1;
#X msg 1398 511 1;
#X obj 1376 592 s MsubBeatDivision;
#X obj 625 174 v Mvolume;
#X obj 698 176 v MsubBeatDivision;
#X obj 919 416 s Mbeats;
#X obj 604 361 r Mbeats;
#X obj 1337 569 moses 0;
#X obj 582 912 moses 1;
#X obj 620 883 v MsubBeatDivision;
#X msg 652 863 bang;
#X msg 1519 675 -1;
#X msg 1572 674 1;
#X obj 1549 726 moses 0;
#X obj 1549 703 expr Mtempo + $f1;
#X obj 700 199 v Mtempo;
#X obj 1590 757 s Mtempo;
#X obj 795 64 loadbang;
#X obj 932 58 loadbang;
#X obj 627 66 loadbang;
#X obj 526 1043 v subDivisionVolume;
#X msg 794 87 \; beatFreq 650 \; divisionFreq 800 \; subBeatFreq 900
\;;
#X obj 22 590 tosymbol;
#X obj 75 379 t b b;
#X obj 60 565 expr ( Mbeats-$f1 ) % Mbeats + 1;
#X obj 291 647 s Mcolour;
#X obj 54 521 v Mcolour;
#X obj 926 1076 s Mcolour;
#X obj 441 1059 s Mcolour;
#X text 1750 668 enter - on off;
#X obj 1744 694 sel 10, f 28;
#X obj 1748 721 tgl 15 0 empty empty empty 17 7 0 10 -262144 -1 -1
1 1;
#X obj 116 724 colour/hsl2col-adapter;
#X msg 115 698 200;
#X msg 172 695 0;
#X msg 228 695 80;
#X obj -149 603 v McolEmpty;
#X obj 1043 62 loadbang;
#X obj 439 1036 v McolSubBeat;
#X obj 925 1052 v McolDivision;
#X obj 293 625 v McolBeat;
#X msg 468 84 \; Mbeats 4 \; MsubBeatDivision 0 \; Mdivision 8 \; Mtempo
120 \; Mvolume 0.5;
#X obj 1518 646 sel 96 122 126 90, f 35;
#X msg 1612 673 -10;
#X msg 1664 673 10;
#X obj 630 226 v Mbeats;
#X obj 634 247 v MsubBeatDivision;
#X msg 871 334 -1;
#X msg 970 334 1;
#X obj 873 364 expr Mbeats + $f1;
#X obj -48 422 t f b;
#X obj -144 543 t b b;
#X obj -105 492 t b f;
#X msg -113 583 symbol;
#X obj 868 311 sel 91 93, f 35;
#X text 1529 620 ` z + Shift - Tempo;
#X obj 110 594 moses 10;
#X obj -65 646 pack f s f;
#X msg -66 678 \; flash color \$1 \; flash label \$2 20 50 \; flash
label_pos \$3 75 \;;
#X msg 93 618 50;
#X msg 149 618 30;
#X msg 1225 90 \; McolEmpty -1.60543e+07 \; McolBeat -1.53732e+07 \;
McolSubBeat -8.90057e+06 \; McolDivision -1.2705e+07 \;;
#X msg 1042 91 \; McolEmpty 2000 \; McolBeat -1.53732e+07 \; McolSubBeat
-8.90057e+06 \; McolDivision -1.2705e+07 \;;
#X obj 1745 752 s MonOff;
#X obj 128 324 r MonOff;
#X obj 677 346 r MonOff;
#X msg 643 386 1;
#X obj 1780 720 expr (MonOff + 1 ) % 2;
#X msg 628 95 \; beatVolume 1 \; subDivisionVolume 0.5 \; divisionVolume
0.25;
#X obj 1909 818 tgl 15 1 empty empty empty 17 7 0 10 -262144 -1 -1
0 1;
#X text 1915 764 ald d - on off;
#X obj 1909 790 sel 8706, f 28;
#X obj 1911 892 s MdoubleTime;
#X obj 214 181 loadbang;
#X obj 271 170 r MdoubleTime;
#X msg 214 218 1000;
#X obj 103 269 expr (60/$f1)*$f2;
#X obj 214 239 / 1;
#X obj 1910 843 sel 0 1;
#X msg 1910 864 1;
#X msg 1941 864 2;
#X obj 271 191 t b b f;
#X floatatom 835 218 5 0 0 0 - - -;
#X obj 827 266 spigot;
#X obj 939 249 tgl 15 1 empty empty empty 17 7 0 10 -262144 -1 -1 1
1;
#X text 938 189 esc - keyboard control;
#X obj 939 213 sel 27, f 7;
#X obj 876 219 loadbang;
#X msg 877 241 1;
#X text 267 565 beat indication;
#X msg 932 87 \; pd dsp 1 \;;
#X obj 825 196 t f f;
#X obj 825 173 key;
#X connect 0 0 144 0;
#X connect 1 0 4 1;
#X connect 1 0 10 1;
#X connect 4 0 91 0;
#X connect 6 0 19 0;
#X connect 7 0 6 0;
#X connect 10 0 118 0;
#X connect 11 0 119 0;
#X connect 12 0 120 0;
#X connect 15 0 109 0;
#X connect 16 0 0 0;
#X connect 18 0 19 1;
#X connect 19 0 14 0;
#X connect 19 0 14 1;
#X connect 22 0 32 0;
#X connect 23 0 6 1;
#X connect 24 0 26 0;
#X connect 26 0 46 0;
#X connect 26 0 92 0;
#X connect 27 0 53 0;
#X connect 28 0 51 0;
#X connect 29 0 57 0;
#X connect 30 0 7 0;
#X connect 31 0 56 0;
#X connect 32 0 24 0;
#X connect 33 0 22 0;
#X connect 33 1 32 0;
#X connect 33 1 24 0;
#X connect 35 0 36 0;
#X connect 35 1 41 0;
#X connect 35 2 65 0;
#X connect 36 0 42 0;
#X connect 37 1 73 0;
#X connect 38 1 40 0;
#X connect 41 0 38 0;
#X connect 42 0 39 0;
#X connect 43 0 47 0;
#X connect 46 0 61 0;
#X connect 46 0 62 0;
#X connect 46 0 22 0;
#X connect 46 1 25 0;
#X connect 46 1 63 0;
#X connect 47 0 78 0;
#X connect 47 1 50 0;
#X connect 48 0 52 0;
#X connect 49 0 88 0;
#X connect 49 1 48 0;
#X connect 49 1 106 0;
#X connect 49 1 59 0;
#X connect 50 0 31 0;
#X connect 50 1 27 0;
#X connect 50 1 107 0;
#X connect 50 1 60 0;
#X connect 54 0 23 0;
#X connect 58 0 30 0;
#X connect 61 0 29 0;
#X connect 61 0 108 0;
#X connect 61 1 28 0;
#X connect 63 0 43 0;
#X connect 64 0 43 1;
#X connect 65 0 68 0;
#X connect 65 1 69 0;
#X connect 65 2 110 0;
#X connect 67 0 75 0;
#X connect 68 0 67 0;
#X connect 69 0 67 0;
#X connect 74 0 33 0;
#X connect 74 0 134 0;
#X connect 75 1 70 0;
#X connect 76 0 50 0;
#X connect 76 1 49 0;
#X connect 77 0 76 0;
#X connect 78 0 77 0;
#X connect 79 0 82 0;
#X connect 80 0 82 0;
#X connect 81 1 84 0;
#X connect 82 0 81 0;
#X connect 85 0 89 0;
#X connect 86 0 158 0;
#X connect 87 0 136 0;
#X connect 88 0 55 0;
#X connect 90 0 125 1;
#X connect 91 0 10 0;
#X connect 91 1 24 0;
#X connect 92 0 90 0;
#X connect 92 0 124 0;
#X connect 94 0 125 0;
#X connect 98 0 99 0;
#X connect 98 1 139 0;
#X connect 99 0 131 0;
#X connect 101 0 100 0;
#X connect 102 0 100 1;
#X connect 103 0 100 2;
#X connect 104 0 125 0;
#X connect 105 0 130 0;
#X connect 106 0 96 0;
#X connect 107 0 95 0;
#X connect 108 0 93 0;
#X connect 110 0 79 0;
#X connect 110 1 80 0;
#X connect 110 2 111 0;
#X connect 110 3 112 0;
#X connect 110 4 98 0;
#X connect 111 0 82 0;
#X connect 112 0 82 0;
#X connect 115 0 117 0;
#X connect 116 0 117 0;
#X connect 117 0 37 0;
#X connect 118 0 12 0;
#X connect 118 1 94 0;
#X connect 119 0 104 0;
#X connect 119 1 121 0;
#X connect 120 0 11 0;
#X connect 120 1 11 1;
#X connect 121 0 125 1;
#X connect 122 0 115 0;
#X connect 122 1 116 0;
#X connect 122 2 35 0;
#X connect 124 0 127 0;
#X connect 124 1 128 0;
#X connect 125 0 126 0;
#X connect 127 0 125 2;
#X connect 128 0 125 2;
#X connect 132 0 4 0;
#X connect 133 0 134 0;
#X connect 134 0 34 0;
#X connect 137 0 146 0;
#X connect 139 0 137 0;
#X connect 141 0 143 0;
#X connect 142 0 149 0;
#X connect 143 0 145 0;
#X connect 144 0 1 0;
#X connect 145 0 144 1;
#X connect 146 0 147 0;
#X connect 146 1 148 0;
#X connect 147 0 140 0;
#X connect 148 0 140 0;
#X connect 149 0 0 0;
#X connect 149 1 143 0;
#X connect 149 2 145 1;
#X connect 151 0 122 0;
#X connect 152 0 151 1;
#X connect 154 0 152 0;
#X connect 155 0 156 0;
#X connect 156 0 151 1;
#X connect 159 0 150 0;
#X connect 159 0 151 0;
#X connect 159 0 154 0;
#X connect 160 0 159 0;
#X coords 0 834 1 833 85 60 0;
