#N canvas 38 563 511 492 10;
#X obj 215 125 hsl2rgb;
#X obj 295 79 / 100;
#X obj 375 79 / 100;
#X obj 215 173 nbx 4 14 0 255 0 0 empty empty Red 48 8 0 10 -262144
-1 -1 193 256;
#X obj 375 214 t b f;
#X obj 295 259 +;
#X obj 295 281 t b f;
#X obj 215 326 +;
#X obj 215 192 * -65536;
#X obj 295 192 * -256;
#X obj 375 192 * -1;
#X obj 215 348 - 1;
#X msg 213 380 color \$1;
#X obj 213 419 s \$0-setcanvas;
#X obj 295 173 nbx 4 14 0 255 0 0 empty empty Green 48 8 0 10 -262144
-1 -1 220 256;
#X obj 375 173 nbx 4 14 0 255 0 0 empty empty Blue 48 8 0 10 -262144
-1 -1 188 256;
#X obj 44 60 cnv 15 100 350 empty \$0-setcanvas empty 20 12 0 14 -200176
-66577 0;
#X text 43 40 Canvas:;
#X obj 215 60 nbx 5 14 0 360 0 1 empty empty Hue 0 -8 0 10 -262144
-1 -1 111 256;
#X obj 295 60 nbx 5 14 0 100 0 1 empty empty Saturation 0 -8 0 10 -262144
-1 -1 31 256;
#X obj 375 60 nbx 5 14 0 100 0 1 empty empty Lightness 0 -8 0 10 -262144
-1 -1 80 256;
#X obj 216 -15 inlet;
#X obj 295 -15 inlet;
#X obj 376 -15 inlet;
#X obj 333 482 outlet;
#X floatatom 315 369 30 0 0 0 - - -;
#X obj 289 333 nbx 20 14 1e+35 1e+37 1 1 empty empty empty 0 -8 0 10
-262144 -1 -1 1e+35 10;
#X floatatom 334 424 20 0 0 0 - - -;
#X obj 188 480 netsend -u -b;
#X msg 29 450 connect localhost 12000;
#X obj 187 451 oscformat -f f hi;
#X connect 0 0 3 0;
#X connect 0 1 14 0;
#X connect 0 2 15 0;
#X connect 1 0 0 1;
#X connect 2 0 0 2;
#X connect 3 0 8 0;
#X connect 4 0 5 0;
#X connect 4 1 5 1;
#X connect 5 0 6 0;
#X connect 6 0 7 0;
#X connect 6 1 7 1;
#X connect 7 0 11 0;
#X connect 8 0 7 0;
#X connect 9 0 5 0;
#X connect 10 0 4 0;
#X connect 11 0 24 0;
#X connect 11 0 26 0;
#X connect 11 0 12 0;
#X connect 12 0 13 0;
#X connect 14 0 9 0;
#X connect 15 0 10 0;
#X connect 18 0 0 0;
#X connect 19 0 1 0;
#X connect 20 0 2 0;
#X connect 21 0 18 0;
#X connect 22 0 19 0;
#X connect 23 0 20 0;
#X connect 29 0 28 0;
#X connect 30 0 28 0;
