#N canvas 766 145 362 651 10;
#X obj 36 233 f;
#X obj 36 256 t f f f;
#X obj 36 141 pack f f f;
#X obj 186 95 t b f;
#X obj 36 187 route 0;
#X obj 36 210 b;
#X obj 96 233 unpack f f f;
#X obj 116 95 t b f;
#X msg 36 164 \$2 \$1 \$3;
#X text 97 192 H;
#X obj 208 302 moses 0.5;
#X obj 223 325 + 1;
#X obj 208 348 *;
#X obj 171 279 t f f;
#X text 137 192 S;
#X text 117 192 L;
#X obj 259 325 t f f;
#X obj 259 348 +;
#X obj 259 371 -;
#X obj 286 348 *;
#X obj 208 394 t f;
#X obj 171 394 * 2;
#X obj 171 417 -;
#N canvas 796 364 323 436 hue2rgb 0;
#X obj 36 49 inlet;
#X obj 116 49 inlet;
#X obj 196 49 inlet;
#X text 38 30 T;
#X text 198 30 Q;
#X text 118 30 P;
#X obj 36 72 moses;
#X obj 36 95 + 1;
#X obj 63 95 moses 1;
#X obj 102 118 - 1;
#X obj 36 141 t f;
#X obj 36 187 * 6;
#X obj 181 118 +;
#X obj 181 95 * -1;
#X obj 36 210 *;
#X obj 36 233 +;
#X obj 36 371 outlet;
#X obj 117 187 moses 0.5;
#X obj 117 210 b;
#X obj 117 233 f;
#X obj 168 210 moses 0.666667;
#X obj 249 233 b;
#X obj 249 256 f;
#X obj 168 233 * -1;
#X obj 168 256 + 0.666667;
#X obj 168 279 * 6;
#X obj 168 302 *;
#X obj 168 325 +;
#X obj 36 164 moses 0.166667;
#X connect 0 0 6 0;
#X connect 1 0 13 0;
#X connect 1 0 15 1;
#X connect 1 0 22 1;
#X connect 1 0 27 1;
#X connect 2 0 12 1;
#X connect 2 0 19 1;
#X connect 6 0 7 0;
#X connect 6 1 8 0;
#X connect 7 0 10 0;
#X connect 8 0 10 0;
#X connect 8 1 9 0;
#X connect 9 0 10 0;
#X connect 10 0 28 0;
#X connect 11 0 14 0;
#X connect 12 0 14 1;
#X connect 12 0 26 1;
#X connect 13 0 12 0;
#X connect 14 0 15 0;
#X connect 15 0 16 0;
#X connect 17 0 18 0;
#X connect 17 1 20 0;
#X connect 18 0 19 0;
#X connect 19 0 16 0;
#X connect 20 0 23 0;
#X connect 20 1 21 0;
#X connect 21 0 22 0;
#X connect 22 0 16 0;
#X connect 23 0 24 0;
#X connect 24 0 25 0;
#X connect 25 0 26 0;
#X connect 26 0 27 0;
#X connect 27 0 16 0;
#X connect 28 0 11 0;
#X connect 28 1 17 0;
#X restore 96 464 pd hue2rgb;
#X msg 96 210 \$2 \$3 \$1;
#X obj 96 256 t f f f;
#X obj 96 279 + 0.333333;
#X obj 236 417 - 0.333333;
#X obj 36 510 * 255;
#X obj 36 533 + 0.5;
#X obj 36 556 i;
#X obj 36 579 outlet;
#X obj 136 533 + 0.5;
#X obj 136 556 i;
#X obj 136 579 outlet;
#X obj 236 533 + 0.5;
#X obj 236 556 i;
#X obj 236 579 outlet;
#X obj 136 510 * 255;
#X obj 236 510 * 255;
#X obj 36 49 inlet;
#X obj 116 49 inlet;
#X obj 186 49 inlet;
#X text 37 29 H;
#X text 117 29 S;
#X text 187 29 L;
#N canvas 796 359 323 436 hue2rgb 0;
#X obj 36 49 inlet;
#X obj 116 49 inlet;
#X obj 196 49 inlet;
#X text 38 30 T;
#X text 198 30 Q;
#X text 118 30 P;
#X obj 36 72 moses;
#X obj 36 95 + 1;
#X obj 63 95 moses 1;
#X obj 102 118 - 1;
#X obj 36 141 t f;
#X obj 36 187 * 6;
#X obj 181 118 +;
#X obj 181 95 * -1;
#X obj 36 210 *;
#X obj 36 233 +;
#X obj 36 371 outlet;
#X obj 117 187 moses 0.5;
#X obj 117 210 b;
#X obj 117 233 f;
#X obj 168 210 moses 0.666667;
#X obj 249 233 b;
#X obj 249 256 f;
#X obj 168 233 * -1;
#X obj 168 256 + 0.666667;
#X obj 168 279 * 6;
#X obj 168 302 *;
#X obj 168 325 +;
#X obj 36 164 moses 0.166667;
#X connect 0 0 6 0;
#X connect 1 0 13 0;
#X connect 1 0 15 1;
#X connect 1 0 22 1;
#X connect 1 0 27 1;
#X connect 2 0 12 1;
#X connect 2 0 19 1;
#X connect 6 0 7 0;
#X connect 6 1 8 0;
#X connect 7 0 10 0;
#X connect 8 0 10 0;
#X connect 8 1 9 0;
#X connect 9 0 10 0;
#X connect 10 0 28 0;
#X connect 11 0 14 0;
#X connect 12 0 14 1;
#X connect 12 0 26 1;
#X connect 13 0 12 0;
#X connect 14 0 15 0;
#X connect 15 0 16 0;
#X connect 17 0 18 0;
#X connect 17 1 20 0;
#X connect 18 0 19 0;
#X connect 19 0 16 0;
#X connect 20 0 23 0;
#X connect 20 1 21 0;
#X connect 21 0 22 0;
#X connect 22 0 16 0;
#X connect 23 0 24 0;
#X connect 24 0 25 0;
#X connect 25 0 26 0;
#X connect 26 0 27 0;
#X connect 27 0 16 0;
#X connect 28 0 11 0;
#X connect 28 1 17 0;
#X restore 166 464 pd hue2rgb;
#N canvas 796 359 323 436 hue2rgb 0;
#X obj 36 49 inlet;
#X obj 116 49 inlet;
#X obj 196 49 inlet;
#X text 38 30 T;
#X text 198 30 Q;
#X text 118 30 P;
#X obj 36 72 moses;
#X obj 36 95 + 1;
#X obj 63 95 moses 1;
#X obj 102 118 - 1;
#X obj 36 141 t f;
#X obj 36 187 * 6;
#X obj 181 118 +;
#X obj 181 95 * -1;
#X obj 36 210 *;
#X obj 36 233 +;
#X obj 36 371 outlet;
#X obj 117 187 moses 0.5;
#X obj 117 210 b;
#X obj 117 233 f;
#X obj 168 210 moses 0.666667;
#X obj 249 233 b;
#X obj 249 256 f;
#X obj 168 233 * -1;
#X obj 168 256 + 0.666667;
#X obj 168 279 * 6;
#X obj 168 302 *;
#X obj 168 325 +;
#X obj 36 164 moses 0.166667;
#X connect 0 0 6 0;
#X connect 1 0 13 0;
#X connect 1 0 15 1;
#X connect 1 0 22 1;
#X connect 1 0 27 1;
#X connect 2 0 12 1;
#X connect 2 0 19 1;
#X connect 6 0 7 0;
#X connect 6 1 8 0;
#X connect 7 0 10 0;
#X connect 8 0 10 0;
#X connect 8 1 9 0;
#X connect 9 0 10 0;
#X connect 10 0 28 0;
#X connect 11 0 14 0;
#X connect 12 0 14 1;
#X connect 12 0 26 1;
#X connect 13 0 12 0;
#X connect 14 0 15 0;
#X connect 15 0 16 0;
#X connect 17 0 18 0;
#X connect 17 1 20 0;
#X connect 18 0 19 0;
#X connect 19 0 16 0;
#X connect 20 0 23 0;
#X connect 20 1 21 0;
#X connect 21 0 22 0;
#X connect 22 0 16 0;
#X connect 23 0 24 0;
#X connect 24 0 25 0;
#X connect 25 0 26 0;
#X connect 26 0 27 0;
#X connect 27 0 16 0;
#X connect 28 0 11 0;
#X connect 28 1 17 0;
#X restore 236 464 pd hue2rgb;
#X text 37 601 R;
#X text 137 601 G;
#X text 237 601 B;
#X obj 36 72 clip 0 360;
#X obj 36 95 / 360;
#X obj 116 72 clip 0 1;
#X obj 186 72 clip 0 1;
#X connect 0 0 1 0;
#X connect 1 0 28 0;
#X connect 1 1 38 0;
#X connect 1 2 39 0;
#X connect 2 0 8 0;
#X connect 3 0 2 0;
#X connect 3 1 2 2;
#X connect 3 1 0 1;
#X connect 4 0 5 0;
#X connect 4 1 24 0;
#X connect 5 0 0 0;
#X connect 6 0 25 0;
#X connect 6 1 13 0;
#X connect 6 2 19 1;
#X connect 6 2 17 1;
#X connect 6 2 11 0;
#X connect 7 0 2 0;
#X connect 7 1 2 1;
#X connect 8 0 4 0;
#X connect 10 0 12 0;
#X connect 10 1 16 0;
#X connect 11 0 12 1;
#X connect 12 0 20 0;
#X connect 13 0 21 0;
#X connect 13 1 10 0;
#X connect 16 0 17 0;
#X connect 16 1 19 0;
#X connect 17 0 18 0;
#X connect 18 0 20 0;
#X connect 19 0 18 1;
#X connect 20 0 22 1;
#X connect 20 0 23 2;
#X connect 20 0 46 2;
#X connect 20 0 47 2;
#X connect 21 0 22 0;
#X connect 22 0 23 1;
#X connect 22 0 46 1;
#X connect 22 0 47 1;
#X connect 23 0 28 0;
#X connect 24 0 6 0;
#X connect 25 0 26 0;
#X connect 25 1 46 0;
#X connect 25 2 27 0;
#X connect 26 0 23 0;
#X connect 27 0 47 0;
#X connect 28 0 29 0;
#X connect 29 0 30 0;
#X connect 30 0 31 0;
#X connect 32 0 33 0;
#X connect 33 0 34 0;
#X connect 35 0 36 0;
#X connect 36 0 37 0;
#X connect 38 0 32 0;
#X connect 39 0 35 0;
#X connect 40 0 51 0;
#X connect 41 0 53 0;
#X connect 42 0 54 0;
#X connect 46 0 38 0;
#X connect 47 0 39 0;
#X connect 51 0 52 0;
#X connect 52 0 2 0;
#X connect 53 0 7 0;
#X connect 54 0 3 0;
